<?xml version="1.0" encoding="UTF-8" standalone="no"?>
<!-- Created with Inkscape (http://www.inkscape.org/) -->

<svg
   xmlns:dc="http://purl.org/dc/elements/1.1/"
   xmlns:cc="http://creativecommons.org/ns#"
   xmlns:rdf="http://www.w3.org/1999/02/22-rdf-syntax-ns#"
   xmlns:svg="http://www.w3.org/2000/svg"
   xmlns="http://www.w3.org/2000/svg"
   xmlns:xlink="http://www.w3.org/1999/xlink"
   xmlns:sodipodi="http://sodipodi.sourceforge.net/DTD/sodipodi-0.dtd"
   xmlns:inkscape="http://www.inkscape.org/namespaces/inkscape"
   width="256"
   height="256"
   viewBox="0 0 67.733333 67.733333"
   version="1.1"
   id="svg8"
   sodipodi:docname="ForRunners-icon.svg"
   inkscape:version="0.92.0 r"
   inkscape:export-filename="/home/david/Documents/project/ForRunners/ForRunners-icon.svg.png"
   inkscape:export-xdpi="96"
   inkscape:export-ydpi="96">
  <sodipodi:namedview
     id="base"
     pagecolor="#ffffff"
     bordercolor="#666666"
     borderopacity="1.0"
     inkscape:pageopacity="0.0"
     inkscape:pageshadow="2"
     inkscape:zoom="0.98994949"
     inkscape:cx="99.683697"
     inkscape:cy="149.7796"
     inkscape:document-units="px"
     inkscape:current-layer="g4736"
     showgrid="false"
     units="px"
     inkscape:window-width="1920"
     inkscape:window-height="1026"
     inkscape:window-x="0"
     inkscape:window-y="26"
     inkscape:window-maximized="1"
     showguides="true"
     inkscape:guide-bbox="true" />
  <defs
     id="defs2">
    <linearGradient
       inkscape:collect="always"
       id="linearGradient5663">
      <stop
         style="stop-color:#180f06;stop-opacity:1;"
         offset="0"
         id="stop5659" />
      <stop
         style="stop-color:#180f06;stop-opacity:0;"
         offset="1"
         id="stop5661" />
    </linearGradient>
    <linearGradient
       inkscape:collect="always"
       xlink:href="#linearGradient5663"
       id="linearGradient5665"
       x1="387.85147"
       y1="408.30103"
       x2="513.20605"
       y2="536.14532"
       gradientUnits="userSpaceOnUse"
       gradientTransform="matrix(0.26458333,0,0,0.26458333,0,132.37006)" />
    <clipPath
       clipPathUnits="userSpaceOnUse"
       id="clipPath5713">
      <circle
         style="opacity:1;fill:#387ef5;fill-opacity:1;stroke:none;stroke-width:2.00666595;stroke-miterlimit:4;stroke-dasharray:none;stroke-opacity:1"
         id="circle5715"
         cx="79.375"
         cy="217.62498"
         r="79.375" />
    </clipPath>
  </defs>
  <metadata
     id="metadata5">
    <rdf:RDF>
      <cc:Work
         rdf:about="">
        <dc:format>image/svg+xml</dc:format>
        <dc:type
           rdf:resource="http://purl.org/dc/dcmitype/StillImage" />
        <dc:title />
      </cc:Work>
    </rdf:RDF>
  </metadata>
  <g
     transform="translate(0,-229.26666)"
     id="layer1"
     inkscape:groupmode="layer"
     inkscape:label="Calque 1">
    <g
       transform="matrix(0.38007461,0,0,0.38007461,26.457825,164.70739)"
       id="g4510"
       style="fill:#f39c12;fill-opacity:1" />
    <g
       transform="matrix(0.38007461,0,0,0.38007461,26.457825,164.70739)"
       id="g4512"
       style="fill:#f39c12;fill-opacity:1" />
    <g
       transform="matrix(0.38007461,0,0,0.38007461,26.457825,164.70739)"
       id="g4514"
       style="fill:#f39c12;fill-opacity:1" />
    <g
       transform="matrix(0.38007461,0,0,0.38007461,26.457825,164.70739)"
       id="g4516"
       style="fill:#f39c12;fill-opacity:1" />
    <g
       transform="matrix(0.38007461,0,0,0.38007461,26.457825,164.70739)"
       id="g4518"
       style="fill:#f39c12;fill-opacity:1" />
    <g
       transform="matrix(0.38007461,0,0,0.38007461,26.457825,164.70739)"
       id="g4520"
       style="fill:#f39c12;fill-opacity:1" />
    <g
       transform="matrix(0.38007461,0,0,0.38007461,26.457825,164.70739)"
       id="g4522"
       style="fill:#f39c12;fill-opacity:1" />
    <g
       transform="matrix(0.38007461,0,0,0.38007461,26.457825,164.70739)"
       id="g4524"
       style="fill:#f39c12;fill-opacity:1" />
    <g
       transform="matrix(0.38007461,0,0,0.38007461,26.457825,164.70739)"
       id="g4526"
       style="fill:#f39c12;fill-opacity:1" />
    <g
       transform="matrix(0.38007461,0,0,0.38007461,26.457825,164.70739)"
       id="g4528"
       style="fill:#f39c12;fill-opacity:1" />
    <g
       transform="matrix(0.38007461,0,0,0.38007461,26.457825,164.70739)"
       id="g4530"
       style="fill:#f39c12;fill-opacity:1" />
    <g
       transform="matrix(0.38007461,0,0,0.38007461,26.457825,164.70739)"
       id="g4532"
       style="fill:#f39c12;fill-opacity:1" />
    <g
       transform="matrix(0.38007461,0,0,0.38007461,26.457825,164.70739)"
       id="g4534"
       style="fill:#f39c12;fill-opacity:1" />
    <g
       transform="matrix(0.38007461,0,0,0.38007461,26.457825,164.70739)"
       id="g4536"
       style="fill:#f39c12;fill-opacity:1" />
    <g
       transform="matrix(0.38007461,0,0,0.38007461,26.457825,164.70739)"
       id="g4538"
       style="fill:#f39c12;fill-opacity:1" />
    <g
       id="g5730"
       transform="matrix(0.42666667,0,0,0.42666667,0,170.27999)">
      <g
         id="g4736"
         transform="translate(-0.2450654,-5.8799296)">
        <g
           id="g4531">
          <circle
             r="79.375"
             cy="217.62498"
             cx="79.375"
             id="path4485"
             style="opacity:1;fill:#387ef5;fill-opacity:1;stroke:none;stroke-width:2.00666595;stroke-miterlimit:4;stroke-dasharray:none;stroke-opacity:1"
             transform="translate(0.2450654,5.8799271)" />
          <path
             style="opacity:0.2;fill:url(#linearGradient5665);fill-opacity:1;stroke:none;stroke-width:6.2526679;stroke-miterlimit:4;stroke-dasharray:none;stroke-opacity:1"
             d="m 40.108663,176.50845 -2.793111,4.55631 c 0,0 -2.201907,3.59113 -4.610571,7.87136 -2.408666,4.2802 -5.001013,9.03509 -5.999117,12.38167 l -0.06873,0.23048 -0.02635,0.23978 c -0.732579,6.69787 1.347668,11.30454 3.782198,13.97382 0.0032,0.003 0.0066,0.006 0.0098,0.01 0.149051,0.16306 0.299143,0.32037 0.45062,0.47025 0.0014,0.001 0.0027,0.003 0.0041,0.004 0.0058,0.006 0.01173,0.0113 0.01757,0.017 0.003,0.003 0.0063,0.006 0.0093,0.009 0.01026,0.0102 0.02021,0.0209 0.03049,0.031 0.0124,0.0123 0.0248,0.0245 0.03721,0.0367 0.0096,0.01 0.01934,0.019 0.02894,0.0284 0.01674,0.0167 0.03337,0.0336 0.05013,0.0501 0.01746,0.0174 0.03471,0.035 0.05219,0.0522 0.02094,0.0209 0.04156,0.0419 0.06253,0.0625 0.02014,0.0201 0.04029,0.0401 0.06046,0.0599 0.02241,0.0224 0.04473,0.0451 0.06718,0.0672 0.0291,0.0291 0.05817,0.0582 0.08733,0.0868 0.02661,0.0266 0.05291,0.0534 0.07958,0.0796 0.03047,0.0305 0.06093,0.061 0.09147,0.0909 0.0313,0.0313 0.06217,0.0633 0.09353,0.0941 0.03621,0.0363 0.07221,0.0729 0.108519,0.10851 0.03816,0.0383 0.07594,0.0768 0.114205,0.11421 0.03639,0.0365 0.07307,0.0728 0.109556,0.10852 0.04424,0.0445 0.0879,0.0894 0.132292,0.13281 0.04078,0.041 0.08156,0.0819 0.122472,0.12196 0.04845,0.0488 0.09658,0.0977 0.145212,0.14521 0.04633,0.0466 0.09252,0.0931 0.139009,0.13849 0.0498,0.0502 0.09935,0.10054 0.149344,0.14934 0.05134,0.0518 0.10246,0.10369 0.153996,0.154 0.05581,0.0564 0.111384,0.1128 0.167431,0.16743 0.0567,0.0573 0.113075,0.11455 0.170016,0.17002 0.05973,0.0604 0.119319,0.12042 0.179318,0.1788 0.05946,0.0601 0.11855,0.12015 0.178282,0.17828 0.06277,0.0636 0.125555,0.12675 0.188619,0.1881 0.06474,0.0657 0.129251,0.13103 0.194304,0.19431 0.06834,0.0694 0.136462,0.13841 0.205156,0.20515 0.0701,0.0712 0.139845,0.14192 0.210322,0.21033 0.07268,0.0739 0.144995,0.14721 0.218075,0.21807 0.07152,0.0727 0.143066,0.14467 0.214974,0.21446 0.07814,0.0796 0.156004,0.15846 0.234611,0.23461 0.07701,0.0784 0.154043,0.15593 0.231511,0.23099 0.08087,0.0825 0.161507,0.1641 0.242879,0.24288 0.08259,0.0843 0.164934,0.16762 0.248047,0.24805 0.0842,0.086 0.168468,0.17071 0.253214,0.25269 0.08893,0.091 0.177631,0.18071 0.267166,0.26717 0.08669,0.0887 0.173183,0.17609 0.260451,0.26045 0.09321,0.0956 0.186208,0.1895 0.280085,0.28009 0.09314,0.0954 0.186282,0.18908 0.280088,0.27957 0.09611,0.0986 0.192045,0.19555 0.288869,0.28887 0.09836,0.10096 0.19649,0.20016 0.29559,0.29559 0.09779,0.10042 0.195509,0.19908 0.294039,0.29404 0.10336,0.10639 0.206905,0.2103 0.311092,0.31057 0.104767,0.10784 0.209614,0.21315 0.315227,0.31471 0.105424,0.10858 0.210492,0.21508 0.316776,0.31729 0.109347,0.1128 0.218905,0.22272 0.329178,0.32867 0.111165,0.11471 0.222229,0.22671 0.334346,0.33434 0.112086,0.11574 0.224391,0.2284 0.33745,0.33693 0.115747,0.1197 0.231508,0.23629 0.348297,0.3483 0.11747,0.12153 0.234927,0.23985 0.353468,0.35347 0.118729,0.12292 0.23777,0.24224 0.3576,0.35708 0.122227,0.12671 0.244544,0.2498 0.367938,0.36794 0.123944,0.12855 0.247959,0.25337 0.373102,0.3731 0.125291,0.13005 0.250722,0.25621 0.377237,0.37724 0.128614,0.13366 0.257667,0.26289 0.387575,0.38706 0.05032,0.0523 0.100336,0.10624 0.150895,0.15709 l -7.967472,-0.94309 c -0.09127,-0.0108 -0.181936,-0.0165 -0.271817,-0.0181 -1.348267,-0.0232 -2.513767,0.97301 -2.675808,2.34198 -0.09765,0.82504 0.190844,1.60356 0.723471,2.15594 0.0039,0.004 0.0084,0.008 0.0124,0.0119 0.0084,0.009 0.01732,0.0171 0.02584,0.0258 0.0083,0.009 0.0174,0.0167 0.02584,0.0253 0.01023,0.0108 0.0211,0.0209 0.03152,0.0315 0.01472,0.0156 0.03037,0.0302 0.04547,0.0455 0.01483,0.0157 0.03078,0.0302 0.04599,0.0455 0.01665,0.0176 0.03454,0.034 0.05167,0.0512 0.02093,0.0223 0.0429,0.0436 0.0646,0.0651 0.0207,0.022 0.04314,0.0423 0.06459,0.0636 0.02382,0.0254 0.04908,0.0494 0.0739,0.0739 0.02532,0.0271 0.05209,0.0526 0.07855,0.0785 0.02817,0.0302 0.05827,0.0585 0.08785,0.0873 0.03065,0.0329 0.06328,0.0638 0.0956,0.0951 0.03072,0.0329 0.0632,0.0642 0.0956,0.0956 0.0347,0.0374 0.07167,0.0726 0.108522,0.108 0.03642,0.0393 0.0749,0.0766 0.113689,0.11369 0.03857,0.0417 0.07918,0.0812 0.120406,0.1204 0.0403,0.0436 0.08289,0.0848 0.12609,0.12558 0.04249,0.046 0.08709,0.0898 0.132808,0.13281 0.04369,0.0474 0.08983,0.0923 0.136943,0.13642 0.04629,0.0504 0.09506,0.0984 0.145211,0.14521 0.04845,0.0529 0.09976,0.10303 0.152445,0.15193 0.05128,0.0561 0.105201,0.10963 0.161229,0.16123 0.0527,0.0576 0.10818,0.11252 0.165883,0.16537 0.0549,0.0601 0.112268,0.11767 0.172599,0.1726 0.05575,0.0611 0.114342,0.11943 0.175699,0.17518 0.05814,0.064 0.119179,0.12526 0.183451,0.18345 0.06056,0.0669 0.124479,0.13065 0.19172,0.1912 0.06319,0.07 0.129516,0.13699 0.199988,0.19999 0.06518,0.0722 0.133276,0.14146 0.20619,0.20619 0.06672,0.0739 0.136528,0.14475 0.211357,0.21084 0.0682,0.0757 0.139316,0.1485 0.216006,0.21601 0.07017,0.0781 0.144063,0.15276 0.223242,0.22221 0.07226,0.0807 0.147595,0.15847 0.229444,0.22996 0.07502,0.084 0.153871,0.16468 0.239263,0.23874 0.07594,0.0851 0.155797,0.167 0.242361,0.24185 0.07818,0.0879 0.160118,0.17257 0.249597,0.24959 0.07984,0.09 0.164137,0.17614 0.255799,0.25477 0.08189,0.0927 0.168135,0.18135 0.262517,0.262 0.08295,0.0942 0.170826,0.18434 0.26665,0.26613 0.08524,0.0974 0.175474,0.19022 0.274402,0.2744 0.08686,0.0996 0.179969,0.1937 0.28112,0.27957 0.08913,0.10274 0.184097,0.20017 0.288353,0.28836 0.09047,0.10463 0.187399,0.20341 0.293524,0.293 0.09217,0.10713 0.191725,0.20778 0.300238,0.29921 0.09449,0.11039 0.196734,0.21419 0.30851,0.30799 0.09566,0.11211 0.199191,0.2176 0.312642,0.31264 0.09759,0.11499 0.204168,0.22224 0.320394,0.31936 0.09934,0.1176 0.207825,0.22708 0.326594,0.32608 0.100883,0.11999 0.211757,0.23104 0.332796,0.33177 0.103092,0.12328 0.216783,0.2375 0.341066,0.34054 0.104505,0.12539 0.219861,0.24121 0.346231,0.34572 0.105998,0.12778 0.22329,0.24572 0.351917,0.35192 0.10817,0.1311 0.22932,0.25117 0.361217,0.35966 0.109641,0.13334 0.231754,0.25586 0.365871,0.36587 0.110967,0.13556 0.235363,0.25949 0.371552,0.37104 0.113141,0.139 0.24079,0.26594 0.380339,0.37982 0.114617,0.14128 0.244194,0.2701 0.386024,0.38551 0.116073,0.14372 0.24756,0.27413 0.391708,0.39119 0.117557,0.14627 0.251886,0.27862 0.398425,0.39739 0.119505,0.14953 0.255987,0.28473 0.405659,0.40566 0.121344,0.15243 0.260816,0.28957 0.413412,0.41238 0.122102,0.15386 0.262628,0.29223 0.416512,0.41599 0.124468,0.15792 0.26906,0.29942 0.426847,0.42581 0.126138,0.16051 0.272579,0.30453 0.433049,0.43254 0.127852,0.16319 0.276513,0.30906 0.439767,0.43873 0.129513,0.16579 0.280519,0.3142 0.446484,0.44545 0.131096,0.1683 0.284115,0.31887 0.452684,0.45165 0.133069,0.17143 0.288604,0.32475 0.460438,0.45941 0.134549,0.17368 0.291341,0.32911 0.465603,0.46509 0.136123,0.17626 0.295397,0.33377 0.472324,0.47128 0.137623,0.17879 0.299021,0.33848 0.478523,0.4775 0.139454,0.18188 0.303093,0.34439 0.485759,0.48524 0.140901,0.18424 0.306811,0.34872 0.491961,0.49092 0.142536,0.18704 0.310665,0.35332 0.498676,0.49713 0.144256,0.1899 0.314383,0.35944 0.505396,0.50488 0.145735,0.19237 0.317984,0.36374 0.511596,0.51056 0.147386,0.1952 0.321762,0.36939 0.518316,0.5178 0.148931,0.19787 0.325699,0.37359 0.525031,0.52348 0.150556,0.20068 0.329486,0.37929 0.531752,0.53072 0.151969,0.20316 0.332592,0.38362 0.537435,0.5364 0.1539,0.20646 0.337349,0.39013 0.545703,0.54467 0.15517,0.20861 0.33969,0.39417 0.550354,0.54983 0.156721,0.21143 0.344012,0.39939 0.557589,0.55656 0.158332,0.21433 0.347694,0.40509 0.564306,0.56379 0.159721,0.21678 0.351295,0.40952 0.570507,0.56947 0.161394,0.21982 0.355344,0.41519 0.577742,0.57671 0.162795,0.22233 0.358359,0.4196 0.583427,0.5824 0.164124,0.22498 0.361895,0.42441 0.58963,0.58859 0.165705,0.22808 0.365969,0.43006 0.596862,0.59583 0.167543,0.23129 0.370205,0.43679 0.604613,0.6041 0.168802,0.23346 0.372967,0.44042 0.609783,0.60875 0.170262,0.23628 0.376737,0.44575 0.6165,0.61546 0.171479,0.23876 0.380421,0.45125 0.622699,0.62219 0.172837,0.24141 0.38385,0.45513 0.628904,0.62735 0.174205,0.24441 0.387602,0.46034 0.63562,0.63407 0.1754,0.24719 0.390612,0.46513 0.641305,0.64027 0.176913,0.25049 0.39506,0.47127 0.649054,0.64802 0.178139,0.25313 0.398592,0.4757 0.655259,0.65371 0.179253,0.25585 0.401672,0.48002 0.66094,0.65939 0.180774,0.25933 0.405979,0.48662 0.668695,0.66766 0.182023,0.26206 0.409395,0.49156 0.674894,0.67386 0.183184,0.26483 0.412361,0.49592 0.680577,0.67955 0.184504,0.268 0.416994,0.50165 0.688332,0.68678 0.185708,0.27081 0.420372,0.50656 0.694531,0.69298 0.186923,0.27382 0.423116,0.51188 0.700215,0.6997 0.188177,0.27687 0.427839,0.5172 0.707966,0.70641 0.189355,0.27971 0.431202,0.52214 0.714169,0.71262 0.190365,0.28249 0.434253,0.52652 0.719852,0.7183 0.191669,0.28588 0.438176,0.53326 0.727088,0.72657 0.192802,0.28869 0.442076,0.53772 0.733806,0.73226 0.193852,0.29159 0.444971,0.54261 0.739489,0.73845 0.19516,0.29498 0.449363,0.5489 0.747242,0.74621 0.196241,0.29769 0.452813,0.55344 0.753441,0.75189 0.197601,0.30113 0.456562,0.55977 0.760677,0.75965 0.198479,0.30346 0.459406,0.56343 0.765847,0.76429 0.199607,0.30689 0.462875,0.56917 0.772562,0.77153 0.200699,0.30989 0.467124,0.57464 0.779796,0.77825 0.201938,0.31324 0.470484,0.58 0.786516,0.78497 0.203115,0.31634 0.474033,0.58549 0.793234,0.79168 0.204327,0.31952 0.477483,0.5915 0.799949,0.79892 0.205531,0.32239 0.481632,0.59668 0.807188,0.80511 0.206672,0.32525 0.484294,0.60238 0.812869,0.81184 0.207661,0.32801 0.487701,0.60649 0.819071,0.817 0.209105,0.33176 0.492027,0.61394 0.827341,0.82579 0.209995,0.33401 0.494276,0.61782 0.83199,0.83044 0.211254,0.33752 0.498415,0.6243 0.839743,0.8382 0.212389,0.34051 0.501446,0.62896 0.845942,0.84387 0.213434,0.34352 0.504565,0.63462 0.852146,0.8506 0.214664,0.34691 0.508235,0.6407 0.859377,0.85782 0.215673,0.34958 0.51159,0.64605 0.865582,0.86404 0.216699,0.35247 0.514749,0.65128 0.871781,0.87023 0.217871,0.35584 0.518464,0.65741 0.879014,0.87746 0.21888,0.35874 0.521113,0.66217 0.884701,0.88315 0.219961,0.36201 0.524965,0.66782 0.891937,0.88987 0.221035,0.36521 0.527817,0.67404 0.898136,0.8971 0.22208,0.36812 0.531921,0.67938 0.90537,0.90331 0.223109,0.37121 0.534357,0.68515 0.911055,0.91002 0.224068,0.37406 0.538054,0.6905 0.917774,0.91622 0.225104,0.37734 0.541364,0.69571 0.924491,0.92243 0.226311,0.38089 0.544787,0.70297 0.931727,0.93069 0.227217,0.38341 0.547698,0.70748 0.937411,0.93586 0.228054,0.38641 0.550864,0.71224 0.943614,0.94154 0.22911,0.38999 0.55439,0.71895 0.95084,0.9493 0.23003,0.39296 0.55747,0.72432 0.95705,0.9555 0.23094,0.39598 0.56101,0.7302 0.96377,0.96221 0.23196,0.39938 0.56414,0.73601 0.97048,0.96894 0.23291,0.40239 0.56761,0.74144 0.9772,0.97513 0.23372,0.40528 0.5703,0.74738 0.98289,0.98185 0.23461,0.40842 0.57424,0.75225 0.99012,0.98754 0.23536,0.41154 0.57679,0.75806 0.9958,0.99425 0.2363,0.41519 0.5803,0.76431 1.00304,1.00149 0.2369,0.41779 0.58337,0.76875 1.00873,1.00666 0.23759,0.42123 0.58675,0.77444 1.01544,1.01337 0.23855,0.42513 0.59049,0.78119 1.02319,1.02113 0.23913,0.42771 0.59306,0.78566 1.02836,1.02629 0.23982,0.43124 0.59633,0.7919 1.03508,1.03353 0.24062,0.43476 0.59997,0.79721 1.04232,1.03973 0.24128,0.43803 0.6029,0.80359 1.04851,1.04697 0.24183,0.44092 0.60575,0.80848 1.0542,1.05265 0.2427,0.44493 0.60992,0.81526 1.06247,1.0604 0.24323,0.44756 0.61243,0.81979 1.06763,1.06556 0.2438,0.45106 0.61577,0.82557 1.07436,1.07229 0.24462,0.45497 0.61948,0.83243 1.0821,1.08004 0.24517,0.4577 0.62188,0.83749 1.08727,1.08572 0.24578,0.46119 0.62564,0.84336 1.09451,1.09244 0.24642,0.46463 0.62834,0.8493 1.10071,1.09916 0.24686,0.46757 0.63168,0.85425 1.10691,1.10484 0.24752,0.47158 0.63542,0.86055 1.11466,1.11208 0.24799,0.47448 0.6377,0.86609 1.11982,1.11827 0.24852,0.47816 0.64133,0.87196 1.12707,1.125 0.24909,0.48161 0.64454,0.87794 1.13378,1.13171 0,0 0,5.2e-4 0,5.2e-4 0.24976,0.4851 0.64813,0.88402 1.14101,1.13843 0.25052,0.48865 0.65104,0.89069 1.14774,1.14567 0.25108,0.49156 0.65363,0.89589 1.15342,1.15135 0.2517,0.49512 0.65717,0.90198 1.16065,1.15807 0.25235,0.49856 0.66024,0.90815 1.16737,1.16478 0.25294,0.50178 0.66304,0.91436 1.17357,1.17151 0.25347,0.50502 0.66587,0.9195 1.17977,1.17719 0.25399,0.50869 0.66886,0.92608 1.18649,1.18442 0.25458,0.5121 0.67196,0.9323 1.19321,1.19114 0.25523,0.51566 0.67537,0.93856 1.20045,1.19787 0.25579,0.51872 0.67774,0.94438 1.20612,1.20406 0.25642,0.52233 0.68111,0.95064 1.21337,1.21077 0.25688,0.52545 0.68352,0.95643 1.21904,1.21698 0.25734,0.52894 0.68664,0.96262 1.22577,1.2237 0.25783,0.53231 0.6898,0.96839 1.23248,1.2299 0.25839,0.53609 0.69303,0.97517 1.23972,1.23714 0.25889,0.53925 0.69529,0.98104 1.2454,1.24333 0.25938,0.5427 0.69887,0.98738 1.25264,1.25005 0.25979,0.5459 0.70068,0.99322 1.2578,1.25626 0.26029,0.54969 0.70494,0.99952 1.26607,1.26297 0.2607,0.55289 0.70672,1.00591 1.27125,1.26969 0.2612,0.55653 0.71054,1.01231 1.27899,1.27641 0.26159,0.55961 0.71296,1.01823 1.28467,1.2826 0.26197,0.56314 0.71598,1.02407 1.2914,1.28882 0.26242,0.56695 0.71915,1.03097 1.29862,1.29604 0.26286,0.57023 0.7213,1.03696 1.30432,1.30225 0.37241,0.81164 1.14314,1.41498 2.09858,1.52807 l 4.9661,0.58756 c 0.19531,0.17894 0.41721,0.32856 0.65991,0.44287 0.26268,0.55836 0.71292,1.00784 1.27176,1.26969 0.26313,0.56174 0.71616,1.01376 1.27848,1.27589 0.26349,0.56524 0.71886,1.0201 1.28467,1.28261 0.26388,0.56867 0.72212,1.02598 1.29139,1.28881 0.26419,0.57221 0.72484,1.03231 1.2976,1.29553 0.26461,0.57615 0.72807,1.0387 1.30483,1.30224 0.41813,0.91451 1.33696,1.54823 2.41174,1.54823 h 66.47604 c 0.25984,0 0.51025,-0.0385 0.74724,-0.10749 4.47815,-0.2999 7.80577,-1.81577 10.10792,-3.75791 3.95865,-3.33961 4.87928,-7.74061 4.87928,-7.74061 l 0.34985,-1.6707 -1.36891,-1.00717 0.0625,-0.29921 -1.36219,-1.00201 0.0625,-0.29817 -1.35547,-0.99735 0.062,-0.29611 -1.34824,-0.99219 0.0615,-0.29456 -1.34204,-0.98702 0.0615,-0.293 -1.3348,-0.98185 0.061,-0.29197 -1.32808,-0.97669 0.061,-0.29094 -1.32136,-0.97203 0.0605,-0.28836 -1.31413,-0.96686 0.0599,-0.28732 -1.30741,-0.9617 0.0599,-0.28577 -1.30018,-0.95653 0.0594,-0.28474 -1.29398,-0.95188 0.0594,-0.28267 -1.28674,-0.94671 0.0589,-0.28112 -1.28003,-0.94155 0.0584,-0.27957 -1.27331,-0.93637 0.0584,-0.27854 -1.26607,-0.93121 0.0579,-0.27698 -1.25935,-0.92656 0.0579,-0.27544 -1.25263,-0.92139 0.0574,-0.27388 -1.24541,-0.91623 0.0568,-0.27233 -1.2392,-0.91157 0.0568,-0.27027 -1.23196,-0.9064 0.0563,-0.26924 -1.22524,-0.90124 0.0563,-0.26768 -1.21801,-0.89607 0.0558,-0.26665 -1.21129,-0.8909 0.0553,-0.26459 -1.20458,-0.88625 0.0553,-0.26303 -1.19734,-0.88108 0.0548,-0.262 -1.19063,-0.87592 0.0543,-0.26045 -1.1839,-0.87074 0.0543,-0.2589 -1.17719,-0.8661 0.0537,-0.25683 -1.16995,-0.86042 0.0537,-0.25631 -1.16324,-0.85576 0.0532,-0.25425 -1.15652,-0.85111 0.0527,-0.25218 -1.1498,-0.84595 0.0527,-0.25114 -1.14256,-0.84078 0.0522,-0.24959 -1.13585,-0.83561 0.0522,-0.24805 -1.12913,-0.83044 0.0517,-0.24701 -1.12189,-0.82528 0.0511,-0.24546 -1.11517,-0.8201 0.0512,-0.24443 -1.10846,-0.81546 0.0506,-0.24184 -1.10174,-0.81029 0.0506,-0.24081 -1.0945,-0.80512 0.0501,-0.23978 -1.08779,-0.80047 0.0496,-0.23719 -1.08107,-0.7953 0.0496,-0.23616 -1.07384,-0.79014 0.0491,-0.23512 -1.06712,-0.78497 0.0486,-0.23306 -1.0604,-0.7798 0.0486,-0.23202 -1.05317,-0.77463 0.0481,-0.23048 -1.04696,-0.76998 0.0481,-0.22893 -1.03973,-0.76481 0.0475,-0.22737 -1.03249,-0.75965 0.047,-0.22582 -1.02578,-0.75448 0.047,-0.22479 -1.01906,-0.74983 0.0465,-0.22272 -1.01286,-0.74518 0.0465,-0.22065 -1.00511,-0.73949 0.046,-0.22015 -0.99839,-0.73484 0.0455,-0.21807 -0.99167,-0.72967 0.0455,-0.21653 -0.98495,-0.7245 0.045,-0.21497 -0.97823,-0.71934 0.045,-0.21394 -0.97101,-0.71417 0.0444,-0.2129 -0.96429,-0.70952 0.0439,-0.21032 -0.95756,-0.70435 0.0439,-0.20929 -0.95033,-0.69918 0.0434,-0.20774 -0.94361,-0.69402 0.0434,-0.20671 -0.9369,-0.68936 0.0429,-0.20464 -0.92965,-0.68419 0.0424,-0.20309 -0.92346,-0.67903 0.0424,-0.20154 -0.91623,-0.67386 0.0419,-0.2005 -0.9095,-0.6687 0.0419,-0.19895 -0.90227,-0.66353 0.0413,-0.19792 -0.89555,-0.65887 0.0408,-0.19586 -0.88884,-0.6537 0.0408,-0.1943 -0.88212,-0.64906 0.0403,-0.19224 -0.8754,-0.64389 0.0403,-0.1912 -0.86817,-0.63872 0.0398,-0.18965 -0.86093,-0.63355 0.0393,-0.18862 -0.85473,-0.62839 0.0393,-0.18655 -0.84749,-0.62373 0.0388,-0.18501 -0.84078,-0.61856 0.0388,-0.18397 -0.83406,-0.6134 0.0382,-0.18242 -0.82682,-0.60823 0.0377,-0.18087 -0.8201,-0.60358 0.0372,-0.1788 -0.81287,-0.5979 0.0372,-0.17828 -0.80667,-0.59376 0.0367,-0.1757 -0.79943,-0.58808 0.0367,-0.17467 -0.79272,-0.58342 0.0362,-0.17312 -0.78599,-0.57826 0.0362,-0.17156 -0.77876,-0.57309 0.0357,-0.17054 -0.77204,-0.56792 0.0351,-0.16847 -0.76533,-0.56275 0.0351,-0.16743 -0.75809,-0.55759 0.0346,-0.1664 -0.75137,-0.55294 0.0341,-0.16381 -0.74466,-0.54777 0.0341,-0.16278 -0.73794,-0.54261 0.0341,-0.16174 -0.73122,-0.53796 0.0336,-0.15916 -0.72398,-0.53278 0.0331,-0.15813 -0.71727,-0.52762 0.0331,-0.1571 -0.71055,-0.52245 0.0326,-0.15502 -0.70332,-0.51728 0.032,-0.154 -0.6966,-0.51263 0.032,-0.15245 -0.68989,-0.50746 0.0315,-0.15038 -0.68265,-0.50229 0.031,-0.14935 -0.67593,-0.49712 0.031,-0.14832 -0.6692,-0.49247 0.0305,-0.14573 -0.66249,-0.48731 0.0305,-0.14469 -0.65525,-0.48214 0.03,-0.14315 -0.64854,-0.47697 0.03,-0.14211 -0.64182,-0.47232 0.0294,-0.14005 -0.6351,-0.46715 0.0289,-0.13849 -0.62787,-0.46199 0.0289,-0.13746 -0.62115,-0.45682 0.0284,-0.13591 -0.61392,-0.45165 0.0279,-0.13436 -0.60772,-0.447 0.0279,-0.13229 -0.60048,-0.44184 0.0274,-0.13125 -0.59376,-0.43667 0.0274,-0.12971 -0.58704,-0.43201 0.0269,-0.12816 -0.57981,-0.42633 0.0269,-0.12713 -0.5736,-0.42168 0.0264,-0.12505 -0.56586,-0.41652 0.0258,-0.12402 -0.55914,-0.41134 0.0253,-0.12196 -0.55242,-0.40618 0.0253,-0.12143 -0.54571,-0.40153 0.0248,-0.11886 -0.53847,-0.39584 0.0248,-0.11834 -0.53226,-0.39171 0.0243,-0.11575 -0.52503,-0.38602 0.0243,-0.11524 -0.51831,-0.38137 0.0238,-0.11266 -0.51108,-0.3762 0.0232,-0.11162 -0.50436,-0.37104 0.0232,-0.11059 -0.49764,-0.36587 0.0227,-0.10903 -0.49041,-0.36071 0.0222,-0.10748 -0.48421,-0.35605 0.0222,-0.10542 -0.47697,-0.35089 0.0217,-0.10438 -0.47025,-0.34572 0.0217,-0.10283 -0.46302,-0.34055 0.0212,-0.1018 -0.45631,-0.3359 0.0207,-0.0992 -0.44959,-0.33073 0.0207,-0.0982 -0.44235,-0.32557 0.0202,-0.0971 -0.43615,-0.32091 0.0202,-0.0951 -0.42892,-0.31575 0.0196,-0.0935 -0.4222,-0.31057 0.0191,-0.092 -0.41496,-0.30541 0.0191,-0.0909 -0.40824,-0.30024 0.0186,-0.0894 -0.40152,-0.29559 0.0181,-0.0873 -0.39429,-0.2899 0.0181,-0.0868 -0.38757,-0.28526 0.0176,-0.0847 -0.38138,-0.28061 0.0176,-0.0827 -0.37362,-0.27492 0.0171,-0.0822 -0.36742,-0.27027 0.017,-0.0801 -0.3607,-0.2651 0.0165,-0.0786 -0.35294,-0.25993 0.016,-0.0775 -0.34674,-0.25476 0.016,-0.076 -0.34002,-0.25011 0.0155,-0.0739 -0.3328,-0.24442 0.0155,-0.0734 -0.32607,-0.23978 0.015,-0.0713 -0.31936,-0.23513 0.0145,-0.0692 -0.31212,-0.22945 0.0145,-0.0687 -0.30541,-0.2248 0.014,-0.0667 -0.29817,-0.21962 0.0134,-0.0651 -0.29197,-0.21445 0.0134,-0.0636 -0.28474,-0.2098 0.0129,-0.062 -0.27802,-0.20464 0.0129,-0.061 -0.2713,-0.19947 0.0124,-0.0589 -0.26407,-0.19431 0.0119,-0.0579 -0.25735,-0.18913 0.0119,-0.0563 -0.25012,-0.18397 0.0114,-0.0553 -0.24391,-0.17932 0.0114,-0.0532 -0.2372,-0.17467 0.0109,-0.0512 -0.22996,-0.16898 0.0109,-0.0507 -0.22324,-0.16381 0.0103,-0.0486 -0.21601,-0.15917 0.01,-0.0475 -0.20929,-0.154 0.009,-0.0455 -0.20257,-0.14883 0.009,-0.0444 -0.19533,-0.14366 0.009,-0.0429 -0.18862,-0.1385 0.009,-0.0419 -0.1819,-0.13384 0.008,-0.0398 -0.17466,-0.12867 0.008,-0.0382 -0.16847,-0.12403 0.008,-0.0362 -0.16123,-0.11885 0.007,-0.0351 -0.15451,-0.11369 0.007,-0.0336 -0.14728,-0.10852 0.007,-0.0326 -0.14056,-0.10335 0.006,-0.0305 -0.13384,-0.0987 0.006,-0.0295 -0.12712,-0.0935 0.006,-0.0274 -0.11989,-0.0884 0.006,-0.0264 -0.11317,-0.0832 0.005,-0.0248 -0.10645,-0.0786 0.005,-0.0227 -0.0997,-0.0734 0.005,-0.0217 -0.0925,-0.0682 0.004,-0.0202 -0.0858,-0.0631 0.004,-0.0191 -0.0791,-0.0579 0.004,-0.0171 -0.0718,-0.0532 0.003,-0.0155 -0.0651,-0.0481 0.003,-0.0145 -0.0584,-0.0429 0.003,-0.0124 -0.0517,-0.0377 0.003,-0.0119 -0.0444,-0.0326 0.002,-0.01 -0.0377,-0.0279 0.002,-0.008 -0.031,-0.0227 0.002,-0.007 -0.0243,-0.0181 0.001,-0.005 -0.017,-0.0124 0.001,-0.004 -0.0103,-0.008 5.1e-4,-0.002 -30.702,-22.5857 c -0.006,-0.006 -0.013,-0.0114 -0.0191,-0.0176 -0.0197,-0.0219 -0.0413,-0.0416 -0.062,-0.0625 -0.019,-0.0211 -0.04,-0.0402 -0.06,-0.0605 -0.0156,-0.0173 -0.0328,-0.0329 -0.0491,-0.0496 -0.0141,-0.0155 -0.0298,-0.0294 -0.0444,-0.0444 -0.0119,-0.0131 -0.0249,-0.025 -0.0372,-0.0377 -0.01,-0.0108 -0.0209,-0.0204 -0.031,-0.031 -0.008,-0.009 -0.0162,-0.0168 -0.0243,-0.0253 -0.006,-0.006 -0.0119,-0.0115 -0.0176,-0.0176 -0.004,-0.004 -0.008,-0.008 -0.0114,-0.0119 -0.20225,-0.21979 -0.45593,-0.39309 -0.75241,-0.49764 -0.0284,-0.01 -0.0573,-0.0142 -0.0858,-0.0227 L 73.406372,185.9704 71.82714,187.16413 c -5.717577,4.32356 -10.32951,5.89991 -13.977958,6.08077 -0.390647,0.0194 -0.77002,0.0208 -1.14205,0.0103 l -0.09508,-0.24339 -0.144695,0.23616 c -0.0155,-7e-4 -0.03052,-0.002 -0.04599,-0.003 l -0.271301,-0.69505 -0.169498,0.27699 -0.285771,-0.73225 -0.166915,0.27285 -0.281636,-0.72141 -0.164333,0.26821 -0.2775,-0.71056 -0.162266,0.26511 -0.273368,-0.70022 -0.159678,0.26096 -0.269235,-0.68988 -0.157096,0.25632 -0.265102,-0.67903 -0.155028,0.2527 -0.260966,-0.66869 -0.152445,0.24856 -0.256834,-0.65784 -0.150378,0.24546 -0.252696,-0.64802 -0.147278,0.24029 -0.248565,-0.63665 -0.145211,0.23668 -0.244428,-0.62632 -0.143145,0.23306 -0.240294,-0.61598 -0.140044,0.22841 -0.236162,-0.60513 -0.137975,0.22479 -0.232029,-0.5948 -0.135908,0.22118 -0.227894,-0.58446 -0.132807,0.21652 -0.223759,-0.5736 -0.130741,0.2129 -0.219625,-0.56327 -0.128156,0.20929 -0.216009,-0.55294 -0.125574,0.20464 -0.211357,-0.54209 -0.122989,0.20103 -0.20774,-0.53176 -0.120922,0.19741 -0.203605,-0.52142 -0.11834,0.19276 -0.198954,-0.51057 -0.115755,0.18914 -0.195337,-0.50023 -0.113689,0.18552 -0.191203,-0.48989 -0.110586,0.18086 -0.187071,-0.47904 -0.108518,0.17725 -0.182936,-0.4687 -0.105936,0.17311 -0.178801,-0.45785 -0.10387,0.1695 -0.174664,-0.44752 -0.101288,0.16537 -0.170532,-0.43719 -0.0987,0.16072 -0.166399,-0.42633 -0.09664,0.15761 -0.162263,-0.41599 -0.09405,0.15347 -0.158131,-0.40566 -0.09147,0.14935 -0.153998,-0.39481 -0.08888,0.14521 -0.149863,-0.38447 -0.08682,0.14159 -0.14573,-0.37414 -0.08423,0.13798 -0.14211,-0.3638 -0.08165,0.13281 -0.137459,-0.35244 -0.07958,0.12971 -0.133326,-0.34209 -0.07648,0.12505 -0.129706,-0.33176 -0.07441,0.12195 -0.125574,-0.32142 -0.07183,0.1173 -0.121438,-0.31057 -0.06976,0.11317 -0.11679,-0.29973 -0.06666,0.10904 -0.113172,-0.28939 -0.0646,0.10542 -0.109037,-0.27905 -0.06201,0.10129 -0.104904,-0.2682 -0.05994,0.0977 -0.10077,-0.25786 -0.05736,0.0935 -0.09663,-0.24753 -0.05478,0.0894 -0.0925,-0.23667 -0.05219,0.0853 -0.08837,-0.22634 -0.05013,0.0817 -0.08423,-0.21549 -0.04754,0.0775 -0.0801,-0.20567 -0.04548,0.0739 -0.07596,-0.19482 -0.04238,0.0692 -0.07183,-0.18396 -0.04031,0.0656 -0.0677,-0.17364 -0.03824,0.062 -0.06356,-0.16329 -0.03566,0.0579 -0.05943,-0.15296 -0.03307,0.0537 -0.0553,-0.14211 -0.03049,0.0496 -0.05116,-0.13177 -0.02842,0.046 -0.04703,-0.12092 -0.02584,0.0419 -0.04289,-0.11059 -0.02274,0.0377 -0.03927,-0.10025 -0.02067,0.0341 -0.03514,-0.0894 -0.01809,0.0294 -0.031,-0.0791 -0.01602,0.0258 -0.02635,-0.0682 -0.01344,0.0222 -0.02274,-0.0584 -0.01085,0.0181 -0.01861,-0.0476 -0.0088,0.0145 -0.01447,-0.0372 -0.0057,0.009 -0.01033,-0.0258 -0.0036,0.006 z"
             id="path4814"
             inkscape:connector-curvature="0"
             clip-path="url(#clipPath5713)"
             transform="translate(0.2450654,5.8799271)" />
          <path
             inkscape:connector-curvature="0"
             id="path5667"
             d="m 73.669485,195.1579 55.922715,41.13862 c 0,0 -2.93858,14.02934 -23.12946,7.9626 -20.190884,-6.06675 -69.767552,-21.61277 -69.767552,-21.61277 0,0 -8.531358,-2.55941 -7.204258,-14.6929 1.611479,-5.40319 10.328837,-19.62481 10.328837,-19.62481 0,0 9.77024,25.03786 33.849718,6.82926 z"
             style="fill:#42a5f5;fill-opacity:1;stroke:#ffffff;stroke-width:5.30840015;stroke-linecap:butt;stroke-linejoin:miter;stroke-miterlimit:4;stroke-dasharray:none;stroke-opacity:1"
             sodipodi:nodetypes="ccscccc" />
          <g
             id="g5709"
             style="fill:#1a237e;fill-opacity:1">
            <g
               transform="matrix(1.0031623,0,0,1.0031623,-0.08444339,-0.78565609)"
               style="fill:#1a237e;fill-opacity:1"
               id="g4644">
              <rect
                 style="opacity:1;fill:#1a237e;fill-opacity:1;stroke:none;stroke-width:6.23295784;stroke-miterlimit:4;stroke-dasharray:none;stroke-opacity:1"
                 id="rect4638"
                 width="71.558044"
                 height="5.2916665"
                 x="47.260284"
                 y="243.15509"
                 ry="2.6458333" />
              <rect
                 ry="2.6458333"
                 y="227.2243"
                 x="59.304592"
                 height="5.2916665"
                 width="71.558044"
                 id="rect4640"
                 style="opacity:1;fill:#1a237e;fill-opacity:1;stroke:none;stroke-width:6.23295784;stroke-miterlimit:4;stroke-dasharray:none;stroke-opacity:1"
                 transform="rotate(6.7505167)" />
            </g>
            <rect
               transform="rotate(19.424199)"
               ry="2.1654429"
               y="164.41844"
               x="147.31805"
               height="13.286294"
               width="3.9813004"
               id="rect4622"
               style="opacity:1;fill:#1a237e;fill-opacity:1;stroke:none;stroke-width:7.23720837;stroke-miterlimit:4;stroke-dasharray:none;stroke-opacity:1" />
            <rect
               style="opacity:1;fill:#1a237e;fill-opacity:1;stroke:none;stroke-width:7.23720837;stroke-miterlimit:4;stroke-dasharray:none;stroke-opacity:1"
               id="rect4624"
               width="3.9813004"
               height="13.286294"
               x="155.42851"
               y="165.32773"
               ry="2.1654429"
               transform="rotate(19.424199)" />
            <rect
               transform="rotate(19.424199)"
               ry="2.1654429"
               y="166.17914"
               x="163.41806"
               height="13.286294"
               width="3.9813004"
               id="rect4626"
               style="opacity:1;fill:#1a237e;fill-opacity:1;stroke:none;stroke-width:7.23720837;stroke-miterlimit:4;stroke-dasharray:none;stroke-opacity:1" />
          </g>
          <path
             sodipodi:nodetypes="ccscccc"
             style="fill:none;stroke:#ffffff;stroke-width:5.30840015;stroke-linecap:butt;stroke-linejoin:miter;stroke-miterlimit:4;stroke-dasharray:none;stroke-opacity:1"
             d="m 73.669485,195.1579 55.922715,41.13862 c 0,0 -2.93858,14.02934 -23.12946,7.9626 -20.190884,-6.06675 -69.767552,-21.61277 -69.767552,-21.61277 0,0 -8.531358,-2.55941 -7.204258,-14.6929 1.611479,-5.40319 10.328837,-19.62481 10.328837,-19.62481 0,0 9.77024,25.03786 33.849718,6.82926 z"
             id="path4613"
             inkscape:connector-curvature="0" />
          <path
             style="fill:none;stroke:#ffffff;stroke-width:3.98130035;stroke-linecap:butt;stroke-linejoin:miter;stroke-miterlimit:4;stroke-dasharray:none;stroke-opacity:1"
             d="m 130.57864,234.7121 c 0,0 -2.39122,9.7771 -21.2933,3.87857 -18.902094,-5.89852 -79.289832,-26.04244 -79.289832,-26.04244"
             id="path4648"
             inkscape:connector-curvature="0"
             sodipodi:nodetypes="ccc" />
        </g>
      </g>
    </g>
  </g>
</svg>
